<svg width="56" height="57" viewBox="0 0 56 57" fill="none" xmlns="http://www.w3.org/2000/svg">
<path d="M18.2684 47.167C17.3074 49.8858 14.7145 51.8337 11.6667 51.8337C7.8007 51.8337 4.66669 48.6998 4.66669 44.8337C4.66669 41.7859 6.61458 39.1928 9.33335 38.232V18.7687C6.61458 17.8077 4.66669 15.2148 4.66669 12.167C4.66669 8.30101 7.8007 5.16699 11.6667 5.16699C14.7145 5.16699 17.3074 7.11488 18.2684 9.83366H37.7317C38.6925 7.11488 41.2856 5.16699 44.3334 5.16699C48.1995 5.16699 51.3334 8.30101 51.3334 12.167C51.3334 15.2148 49.3855 17.8077 46.6667 18.7687V38.232C49.3855 39.1928 51.3334 41.7859 51.3334 44.8337C51.3334 48.6998 48.1995 51.8337 44.3334 51.8337C41.2856 51.8337 38.6925 49.8858 37.7317 47.167H18.2684ZM18.2684 42.5003H37.7317C38.4347 40.5114 40.0111 38.935 42 38.232V18.7687C40.0111 18.0657 38.4347 16.4893 37.7317 14.5003H18.2684C17.5654 16.4893 15.989 18.0657 14 18.7687V38.232C15.989 38.935 17.5654 40.5114 18.2684 42.5003ZM11.6667 14.5003C12.9553 14.5003 14 13.4556 14 12.167C14 10.8783 12.9553 9.83366 11.6667 9.83366C10.378 9.83366 9.33335 10.8783 9.33335 12.167C9.33335 13.4556 10.378 14.5003 11.6667 14.5003ZM44.3334 14.5003C45.6221 14.5003 46.6667 13.4556 46.6667 12.167C46.6667 10.8783 45.6221 9.83366 44.3334 9.83366C43.0447 9.83366 42 10.8783 42 12.167C42 13.4556 43.0447 14.5003 44.3334 14.5003ZM44.3334 47.167C45.6221 47.167 46.6667 46.1224 46.6667 44.8337C46.6667 43.545 45.6221 42.5003 44.3334 42.5003C43.0447 42.5003 42 43.545 42 44.8337C42 46.1224 43.0447 47.167 44.3334 47.167ZM11.6667 47.167C12.9553 47.167 14 46.1224 14 44.8337C14 43.545 12.9553 42.5003 11.6667 42.5003C10.378 42.5003 9.33335 43.545 9.33335 44.8337C9.33335 46.1224 10.378 47.167 11.6667 47.167Z" fill="#4C4143"/>
</svg>
