<svg width="113" height="112" viewBox="0 0 113 112" fill="none" xmlns="http://www.w3.org/2000/svg">
<path d="M15.4164 20.8564C26.7281 9.5446 44.7512 9.03454 56.6681 19.3261C68.5775 9.03454 86.6006 9.5446 97.9121 20.8564C109.204 32.1478 109.732 50.1265 99.4974 62.0442L63.264 98.4022C59.7845 101.882 54.2419 102.04 50.5753 98.8768L50.0648 98.4022L13.831 62.0442C3.59639 50.1265 4.12485 32.1478 15.4164 20.8564ZM22.016 27.456C14.0493 35.4227 13.8217 48.1977 21.3332 56.4395L22.016 57.1545L56.6644 91.8026L81.4099 67.0506L64.9137 50.5549L59.9642 55.5048C54.4967 60.9718 45.6324 60.9718 40.1651 55.5048C34.6978 50.0373 34.6978 41.1729 40.1651 35.7056L49.9705 25.8939C41.978 19.4955 30.3946 19.7885 22.7312 26.7731L22.016 27.456ZM61.6139 40.6554C63.4362 38.8329 66.3911 38.8329 68.2135 40.6554L88.0095 60.451L91.3126 57.1545C99.5133 48.9537 99.5133 35.657 91.3126 27.456C83.3456 19.4893 70.5706 19.2617 62.3293 26.7731L61.6139 27.456L46.7647 42.3053C45.0725 43.9975 44.9516 46.6662 46.4021 48.4978L46.7647 48.9047C48.4571 50.5973 51.1255 50.7182 52.9572 49.2673L53.3646 48.9047L61.6139 40.6554Z" fill="white"/>
</svg>
