<svg width="113" height="112" viewBox="0 0 113 112" fill="none" xmlns="http://www.w3.org/2000/svg">
<path d="M30.1179 27.8515C37.303 22.1039 46.417 18.667 56.3337 18.667C66.2504 18.667 75.3644 22.1039 82.5497 27.8515L89.3322 21.069L95.9318 27.6687L89.1493 34.4511C94.8967 41.6363 98.3337 50.7503 98.3337 60.667C98.3337 83.8631 79.5299 102.667 56.3337 102.667C33.1378 102.667 14.3337 83.8631 14.3337 60.667C14.3337 50.7503 17.7706 41.6363 23.5182 34.4511L16.7358 27.6687L23.3354 21.069L30.1179 27.8515ZM56.3337 93.3337C74.3751 93.3337 89.0004 78.7083 89.0004 60.667C89.0004 42.6257 74.3751 28.0003 56.3337 28.0003C38.2925 28.0003 23.6671 42.6257 23.6671 60.667C23.6671 78.7083 38.2925 93.3337 56.3337 93.3337ZM61.0004 56.0003H75.0004L51.6671 86.3337V65.3337H37.6671L61.0004 34.9779V56.0003ZM37.6671 4.66699H75.0004V14.0003H37.6671V4.66699Z" fill="white"/>
</svg>
