<svg width="112" height="112" viewBox="0 0 112 112" fill="none" xmlns="http://www.w3.org/2000/svg">
<path d="M14.7497 20.8564C26.0614 9.5446 44.0845 9.03454 56.0015 19.3261C67.9108 9.03454 85.9339 9.5446 97.2455 20.8564C108.537 32.1478 109.065 50.1265 98.8307 62.0442L62.5973 98.4022C59.1179 101.882 53.5753 102.04 49.9087 98.8768L49.3981 98.4022L13.1643 62.0442C2.9297 50.1265 3.45816 32.1478 14.7497 20.8564ZM21.3493 27.456C13.3826 35.4227 13.155 48.1977 20.6665 56.4395L21.3493 57.1545L55.9977 91.8026L80.7432 67.0506L64.247 50.5549L59.2975 55.5048C53.8301 60.9718 44.9657 60.9718 39.4984 55.5048C34.0311 50.0373 34.0311 41.1729 39.4984 35.7056L49.3039 25.8939C41.3114 19.4955 29.7279 19.7885 22.0645 26.7731L21.3493 27.456ZM60.9472 40.6554C62.7695 38.8329 65.7245 38.8329 67.5468 40.6554L87.3428 60.451L90.6459 57.1545C98.8466 48.9537 98.8466 35.657 90.6459 27.456C82.6789 19.4893 69.9039 19.2617 61.6626 26.7731L60.9472 27.456L46.098 42.3053C44.4058 43.9975 44.2849 46.6662 45.7354 48.4978L46.098 48.9047C47.7905 50.5973 50.4589 50.7182 52.2905 49.2673L52.6979 48.9047L60.9472 40.6554Z" fill="#231C1E"/>
</svg>
