<svg width="112" height="112" viewBox="0 0 112 112" fill="none" xmlns="http://www.w3.org/2000/svg">
<circle cx="55.9997" cy="46.6667" r="35" stroke="#231C1E" stroke-width="9.33333"/>
<path d="M35.9997 74.6667L27.9997 102.667L55.1397 97.578C55.708 97.4714 56.2913 97.4714 56.8597 97.578L83.9997 102.667L75.9997 74.6667" stroke="#231C1E" stroke-width="9.33333"/>
<path d="M56.7837 62.1253C59.0983 59.8356 60.9774 57.496 62.421 55.1067C61.9232 53.0907 61.4877 50.776 61.1143 48.1627C60.741 45.5244 60.4548 42.5751 60.2557 39.3147H53.685V43.608H59.957C59.957 44.8524 59.9446 46.0098 59.9197 47.08C59.9197 48.1253 59.8948 49.1333 59.845 50.104C59.8201 51.0498 59.7828 51.9956 59.733 52.9413C59.7081 53.8622 59.6583 54.8204 59.5837 55.816C59.5339 56.712 59.4343 57.4587 59.285 58.056C59.1357 58.6284 58.9241 59.1013 58.6503 59.4747C58.3766 59.8231 58.0157 60.0844 57.5677 60.2587C57.1197 60.4329 56.5597 60.5573 55.8877 60.632C55.5641 60.6818 55.1783 60.7191 54.7303 60.744C54.2823 60.7689 53.8219 60.7813 53.349 60.7813L52.7143 56.7493C53.2121 56.7991 53.6352 56.8364 53.9837 56.8613C54.3321 56.8613 54.693 56.8613 55.0663 56.8613C55.5143 56.8613 55.8006 56.7991 55.925 56.6747C56.0494 56.5502 56.1366 56.2391 56.1863 55.7413C56.2859 54.4471 56.3606 53.0782 56.4103 51.6347C56.4601 50.1911 56.4726 48.8347 56.4477 47.5653H53.685C53.6103 51.3982 53.2743 54.4844 52.677 56.824C52.3534 58.0933 51.9179 59.4124 51.3703 60.7813C50.8477 62.1502 50.2006 63.5938 49.429 65.112L45.7703 63.5067C47.0148 61.2915 47.9232 59.2631 48.4957 57.4213C47.6743 58.2178 46.7659 59.0267 45.7703 59.848C44.7997 60.6693 43.7419 61.5156 42.597 62.3867L40.6557 59.288C40.8797 59.0889 41.0663 58.9147 41.2157 58.7653C41.365 58.5911 41.477 58.4169 41.5517 58.2427C41.6263 58.0684 41.6761 57.8818 41.701 57.6827C41.7259 57.4587 41.7383 57.1849 41.7383 56.8613V45.3627H38.789V41.368H45.733V55.1067C46.3801 54.4595 47.0397 53.7004 47.7117 52.8293L48.981 55.6293C49.4539 53.4142 49.6903 50.0293 49.6903 45.4747V35.4693H59.9943C59.8948 34.2 59.8201 33.1049 59.7703 32.184C59.7454 31.2631 59.7206 30.504 59.6957 29.9067H63.6903C63.7152 30.4542 63.7401 31.1884 63.765 32.1093C63.7899 33.0302 63.8397 34.1502 63.9143 35.4693H67.237L66.2663 34.0133C65.9428 33.5155 65.6441 33.08 65.3703 32.7067C65.0966 32.3333 64.8477 32.0098 64.6237 31.736L67.4237 29.7573C67.8966 30.28 68.4939 31.0267 69.2157 31.9973C69.5641 32.4951 69.8628 32.9431 70.1117 33.3413C70.3855 33.7147 70.6219 34.0507 70.821 34.3493L69.141 35.4693H72.1277V39.3147H64.1757C64.325 41.256 64.4868 43.0604 64.661 44.728C64.8352 46.3707 65.0219 47.9013 65.221 49.32C65.7188 48.1004 66.1792 46.8311 66.6023 45.512C67.0254 44.168 67.4361 42.7742 67.8343 41.3307L71.605 42.1893C70.8583 44.8027 70.0743 47.1671 69.253 49.2827C68.4317 51.3982 67.5855 53.3147 66.7143 55.032L66.5277 55.4053C66.8761 56.5751 67.2495 57.608 67.6477 58.504C67.9463 59.176 68.1828 59.6489 68.357 59.9227C68.5312 60.1964 68.7303 60.3209 68.9543 60.296C69.1037 60.2711 69.2281 60.1093 69.3277 59.8107C69.4272 59.512 69.5392 58.9893 69.6637 58.2427C69.7632 57.6702 69.8503 57.0356 69.925 56.3387C70.0246 55.6418 70.0992 55.0196 70.149 54.472L73.621 55.4427C73.5463 56.1644 73.4468 56.8613 73.3223 57.5333C73.2228 58.1804 73.0859 58.8649 72.9117 59.5867C72.6379 60.7316 72.3641 61.5778 72.0903 62.1253C71.8166 62.6729 71.5179 63.1209 71.1943 63.4693C70.5472 64.1413 69.7881 64.4773 68.917 64.4773C68.469 64.4773 68.0335 64.4151 67.6103 64.2907C67.1872 64.1662 66.7766 63.9298 66.3783 63.5813C66.005 63.2578 65.6192 62.8098 65.221 62.2373C64.8477 61.6649 64.4619 60.9307 64.0637 60.0347C63.9641 59.9102 63.9019 59.7733 63.877 59.624C62.6326 61.3164 61.2388 62.9715 59.6957 64.5893L56.7837 62.1253ZM43.3063 30.4667C43.6797 30.8151 44.0903 31.2382 44.5383 31.736C44.9863 32.2089 45.4966 32.7689 46.069 33.416C47.1641 34.7102 48.0352 35.7929 48.6823 36.664L45.4343 39.352C45.1606 38.9289 44.8246 38.456 44.4263 37.9333C44.0281 37.4107 43.5428 36.8133 42.9703 36.1413C42.4228 35.4693 41.9126 34.872 41.4397 34.3493C40.9917 33.8267 40.5934 33.3911 40.245 33.0427L43.3063 30.4667Z" fill="#231C1E"/>
</svg>
