<svg width="112" height="112" viewBox="0 0 112 112" fill="none" xmlns="http://www.w3.org/2000/svg">
<path d="M29.7844 27.8515C36.9696 22.1039 46.0836 18.667 56.0003 18.667C65.917 18.667 75.031 22.1039 82.2162 27.8515L88.9988 21.069L95.5984 27.6687L88.8158 34.4511C94.5633 41.6363 98.0003 50.7503 98.0003 60.667C98.0003 83.8631 79.1964 102.667 56.0003 102.667C32.8044 102.667 14.0003 83.8631 14.0003 60.667C14.0003 50.7503 17.4372 41.6363 23.1848 34.4511L16.4023 27.6687L23.002 21.069L29.7844 27.8515ZM56.0003 93.3337C74.0416 93.3337 88.667 78.7083 88.667 60.667C88.667 42.6257 74.0416 28.0003 56.0003 28.0003C37.959 28.0003 23.3336 42.6257 23.3336 60.667C23.3336 78.7083 37.959 93.3337 56.0003 93.3337ZM60.667 56.0003H74.667L51.3336 86.3337V65.3337H37.3336L60.667 34.9779V56.0003ZM37.3336 4.66699H74.667V14.0003H37.3336V4.66699Z" fill="#231C1E"/>
</svg>
