<svg width="112" height="112" viewBox="0 0 112 112" fill="none" xmlns="http://www.w3.org/2000/svg">
<path d="M32.6657 28.0007V14.0007C32.6657 11.4233 34.7551 9.33398 37.3324 9.33398H93.3324C95.9098 9.33398 97.9991 11.4233 97.9991 14.0007V79.334C97.9991 81.9114 95.9098 84.0006 93.3324 84.0006H79.3324V97.9964C79.3324 100.576 77.2329 102.667 74.634 102.667H18.6977C16.1028 102.667 14 100.593 14 97.9964L14.0121 32.6714C14.0126 30.0918 16.1123 28.0007 18.7106 28.0007H32.6657ZM23.3446 37.334L23.3342 93.334H69.9991V37.334H23.3446ZM41.9991 28.0007H79.3324V74.6673H88.6657V18.6673H41.9991V28.0007ZM32.6667 51.334H60.6667V60.6673H32.6667V51.334ZM32.6667 70.0006H60.6667V79.334H32.6667V70.0006Z" fill="#231C1E"/>
</svg>
