<svg width="112" height="112" viewBox="0 0 112 112" fill="none" xmlns="http://www.w3.org/2000/svg">
<circle cx="55.9997" cy="46.6667" r="35" stroke="white" stroke-width="9.33333"/>
<path d="M35.9998 74.6667L27.9998 102.667L55.1397 97.578C55.7081 97.4714 56.2914 97.4714 56.8598 97.578L83.9998 102.667L75.9998 74.6667" stroke="white" stroke-width="9.33333"/>
<path d="M56.7837 62.1253C59.0984 59.8356 60.9775 57.496 62.4211 55.1067C61.9233 53.0907 61.4877 50.776 61.1144 48.1627C60.7411 45.5244 60.4548 42.5751 60.2557 39.3147H53.6851V43.608H59.9571C59.9571 44.8524 59.9446 46.0098 59.9197 47.08C59.9197 48.1253 59.8948 49.1333 59.8451 50.104C59.8202 51.0498 59.7828 51.9956 59.7331 52.9413C59.7082 53.8622 59.6584 54.8204 59.5837 55.816C59.534 56.712 59.4344 57.4587 59.2851 58.056C59.1357 58.6284 58.9242 59.1013 58.6504 59.4747C58.3766 59.8231 58.0157 60.0844 57.5677 60.2587C57.1197 60.4329 56.5597 60.5573 55.8877 60.632C55.5642 60.6818 55.1784 60.7191 54.7304 60.744C54.2824 60.7689 53.822 60.7813 53.3491 60.7813L52.7144 56.7493C53.2122 56.7991 53.6353 56.8364 53.9837 56.8613C54.3322 56.8613 54.6931 56.8613 55.0664 56.8613C55.5144 56.8613 55.8006 56.7991 55.9251 56.6747C56.0495 56.5502 56.1366 56.2391 56.1864 55.7413C56.286 54.4471 56.3606 53.0782 56.4104 51.6347C56.4602 50.1911 56.4726 48.8347 56.4477 47.5653H53.6851C53.6104 51.3982 53.2744 54.4844 52.6771 56.824C52.3535 58.0933 51.918 59.4124 51.3704 60.7813C50.8477 62.1502 50.2006 63.5938 49.4291 65.112L45.7704 63.5067C47.0148 61.2915 47.9233 59.2631 48.4957 57.4213C47.6744 58.2178 46.766 59.0267 45.7704 59.848C44.7997 60.6693 43.742 61.5156 42.5971 62.3867L40.6557 59.288C40.8797 59.0889 41.0664 58.9147 41.2157 58.7653C41.3651 58.5911 41.4771 58.4169 41.5517 58.2427C41.6264 58.0684 41.6762 57.8818 41.7011 57.6827C41.726 57.4587 41.7384 57.1849 41.7384 56.8613V45.3627H38.7891V41.368H45.7331V55.1067C46.3802 54.4595 47.0397 53.7004 47.7117 52.8293L48.9811 55.6293C49.454 53.4142 49.6904 50.0293 49.6904 45.4747V35.4693H59.9944C59.8948 34.2 59.8202 33.1049 59.7704 32.184C59.7455 31.2631 59.7206 30.504 59.6957 29.9067H63.6904C63.7153 30.4542 63.7402 31.1884 63.7651 32.1093C63.79 33.0302 63.8397 34.1502 63.9144 35.4693H67.2371L66.2664 34.0133C65.9428 33.5155 65.6442 33.08 65.3704 32.7067C65.0966 32.3333 64.8477 32.0098 64.6237 31.736L67.4237 29.7573C67.8966 30.28 68.494 31.0267 69.2157 31.9973C69.5642 32.4951 69.8628 32.9431 70.1117 33.3413C70.3855 33.7147 70.622 34.0507 70.8211 34.3493L69.1411 35.4693H72.1277V39.3147H64.1757C64.3251 41.256 64.4868 43.0604 64.6611 44.728C64.8353 46.3707 65.022 47.9013 65.2211 49.32C65.7188 48.1004 66.1793 46.8311 66.6024 45.512C67.0255 44.168 67.4362 42.7742 67.8344 41.3307L71.6051 42.1893C70.8584 44.8027 70.0744 47.1671 69.2531 49.2827C68.4317 51.3982 67.5855 53.3147 66.7144 55.032L66.5277 55.4053C66.8762 56.5751 67.2495 57.608 67.6477 58.504C67.9464 59.176 68.1828 59.6489 68.3571 59.9227C68.5313 60.1964 68.7304 60.3209 68.9544 60.296C69.1037 60.2711 69.2282 60.1093 69.3277 59.8107C69.4273 59.512 69.5393 58.9893 69.6637 58.2427C69.7633 57.6702 69.8504 57.0356 69.9251 56.3387C70.0246 55.6418 70.0993 55.0196 70.1491 54.472L73.6211 55.4427C73.5464 56.1644 73.4468 56.8613 73.3224 57.5333C73.2228 58.1804 73.086 58.8649 72.9117 59.5867C72.638 60.7316 72.3642 61.5778 72.0904 62.1253C71.8166 62.6729 71.518 63.1209 71.1944 63.4693C70.5473 64.1413 69.7882 64.4773 68.9171 64.4773C68.4691 64.4773 68.0335 64.4151 67.6104 64.2907C67.1873 64.1662 66.7766 63.9298 66.3784 63.5813C66.0051 63.2578 65.6193 62.8098 65.2211 62.2373C64.8477 61.6649 64.462 60.9307 64.0637 60.0347C63.9642 59.9102 63.902 59.7733 63.8771 59.624C62.6326 61.3164 61.2388 62.9715 59.6957 64.5893L56.7837 62.1253ZM43.3064 30.4667C43.6797 30.8151 44.0904 31.2382 44.5384 31.736C44.9864 32.2089 45.4966 32.7689 46.0691 33.416C47.1642 34.7102 48.0353 35.7929 48.6824 36.664L45.4344 39.352C45.1606 38.9289 44.8246 38.456 44.4264 37.9333C44.0282 37.4107 43.5428 36.8133 42.9704 36.1413C42.4228 35.4693 41.9126 34.872 41.4397 34.3493C40.9917 33.8267 40.5935 33.3911 40.2451 33.0427L43.3064 30.4667Z" fill="white"/>
</svg>
